ModelForces
version=1
nRows=4
nColumns=155
inDegrees=no

This file contains the forces exerted on a model during a simulation.

A force is a generalized force, meaning that it can be either a force (N) or a torque (Nm).

Units are S.I. units (second, meters, Newtons, ...)
Angles are in degrees.

endheader
time	glut_med1_r	glut_med2_r	glut_med3_r	glut_min1_r	glut_min2_r	glut_min3_r	semimem_r	semiten_r	bifemlh_r	bifemsh_r	sar_r	add_long_r	add_brev_r	add_mag1_r	add_mag2_r	add_mag3_r	tfl_r	pect_r	grac_r	glut_max1_r	glut_max2_r	glut_max3_r	iliacus_r	psoas_r	quad_fem_r	gem_r	peri_r	rect_fem_r	vas_med_r	vas_int_r	vas_lat_r	med_gas_r	lat_gas_r	soleus_r	tib_post_r	flex_dig_r	flex_hal_r	tib_ant_r	per_brev_r	per_long_r	per_tert_r	ext_dig_r	ext_hal_r	glut_med1_l	glut_med2_l	glut_med3_l	glut_min1_l	glut_min2_l	glut_min3_l	semimem_l	semiten_l	bifemlh_l	bifemsh_l	sar_l	add_long_l	add_brev_l	add_mag1_l	add_mag2_l	add_mag3_l	tfl_l	pect_l	grac_l	glut_max1_l	glut_max2_l	glut_max3_l	iliacus_l	psoas_l	quad_fem_l	gem_l	peri_l	rect_fem_l	vas_med_l	vas_int_l	vas_lat_l	med_gas_l	lat_gas_l	soleus_l	tib_post_l	flex_dig_l	flex_hal_l	tib_ant_l	per_brev_l	per_long_l	per_tert_l	ext_dig_l	ext_hal_l	ercspn_r	ercspn_l	intobl_r	intobl_l	extobl_r	extobl_l	femur_lat_meniscii_r.femur_lat_r.force.X	femur_lat_meniscii_r.femur_lat_r.force.Y	femur_lat_meniscii_r.femur_lat_r.force.Z	femur_lat_meniscii_r.femur_lat_r.torque.X	femur_lat_meniscii_r.femur_lat_r.torque.Y	femur_lat_meniscii_r.femur_lat_r.torque.Z	femur_lat_meniscii_r.meniscus_lat_r.force.X	femur_lat_meniscii_r.meniscus_lat_r.force.Y	femur_lat_meniscii_r.meniscus_lat_r.force.Z	femur_lat_meniscii_r.meniscus_lat_r.torque.X	femur_lat_meniscii_r.meniscus_lat_r.torque.Y	femur_lat_meniscii_r.meniscus_lat_r.torque.Z	femur_med_meniscii_r.femur_med_r.force.X	femur_med_meniscii_r.femur_med_r.force.Y	femur_med_meniscii_r.femur_med_r.force.Z	femur_med_meniscii_r.femur_med_r.torque.X	femur_med_meniscii_r.femur_med_r.torque.Y	femur_med_meniscii_r.femur_med_r.torque.Z	femur_med_meniscii_r.meniscus_med_r.force.X	femur_med_meniscii_r.meniscus_med_r.force.Y	femur_med_meniscii_r.meniscus_med_r.force.Z	femur_med_meniscii_r.meniscus_med_r.torque.X	femur_med_meniscii_r.meniscus_med_r.torque.Y	femur_med_meniscii_r.meniscus_med_r.torque.Z	femur_med_tibia_r.tibia_upper_r.force.X	femur_med_tibia_r.tibia_upper_r.force.Y	femur_med_tibia_r.tibia_upper_r.force.Z	femur_med_tibia_r.tibia_upper_r.torque.X	femur_med_tibia_r.tibia_upper_r.torque.Y	femur_med_tibia_r.tibia_upper_r.torque.Z	femur_med_tibia_r.femur_med_r.force.X	femur_med_tibia_r.femur_med_r.force.Y	femur_med_tibia_r.femur_med_r.force.Z	femur_med_tibia_r.femur_med_r.torque.X	femur_med_tibia_r.femur_med_r.torque.Y	femur_med_tibia_r.femur_med_r.torque.Z	femur_lat_tibia_r.tibia_upper_r.force.X	femur_lat_tibia_r.tibia_upper_r.force.Y	femur_lat_tibia_r.tibia_upper_r.force.Z	femur_lat_tibia_r.tibia_upper_r.torque.X	femur_lat_tibia_r.tibia_upper_r.torque.Y	femur_lat_tibia_r.tibia_upper_r.torque.Z	femur_lat_tibia_r.femur_lat_r.force.X	femur_lat_tibia_r.femur_lat_r.force.Y	femur_lat_tibia_r.femur_lat_r.force.Z	femur_lat_tibia_r.femur_lat_r.torque.X	femur_lat_tibia_r.femur_lat_r.torque.Y	femur_lat_tibia_r.femur_lat_r.torque.Z	aACL_R	pACL_R	aPCL_R	pPCL_R	aMCL_R	mMCL_R	pMCL_R	aLCL_R	mLCL_R	pLCL_R	aPCL_L	pPCL_L	aMCL_L	aLCL_L
      0.20974547	      9.70871066	      7.14587638	      7.67119527	      3.32071723	      3.89741394	      4.10474778	      0.00000000	    164.79784839	    177.15257753	    338.98450126	    122.77460218	      7.09908658	      5.16116524	      3.67580369	      3.10718346	      5.16964918	      3.16700838	      2.80002647	     93.02034439	      4.61180560	      7.01306133	      5.25682102	     25.34369876	     16.01887637	      4.55146743	      3.29351601	      5.56925445	    103.65507072	     40.51079469	     26.74856805	     55.99169498	      0.00000000	      0.00000000	      0.00000000	      0.00000000	      0.00000000	      0.00000000	     34.16344499	      2.20907421	      4.48387554	     23.92871558	     49.75968285	     11.56352834	      9.70871066	      7.14587638	      7.67119527	      3.32071723	      3.89741394	      4.10474778	     10.58978255	      5.24059717	     10.25506236	      9.05766884	      1.89604254	      7.09908658	      5.16116524	      3.67580369	      3.10718346	      5.16964918	      4.82910374	      2.80002647	      1.95221407	      4.61180560	      7.01306133	      5.25682102	     25.34369876	     16.01887637	      4.55146743	      3.29351601	      5.56925445	     14.19279181	      0.00000000	      0.00000000	      0.00000000	     19.32182245	      9.02598033	     42.95525412	     47.26416515	      4.17236297	      3.63351539	     11.12114827	      5.88430966	     15.82256796	      2.47788826	      7.86776264	      2.52005754	     31.24634172	     31.24634172	     11.46734688	     11.46734688	     29.02393668	     29.02393668	    215.42973941	    126.38491851	      6.33455412	     -5.38701212	      4.96028627	     85.61847772	   -215.42973941	   -126.38491851	     -6.33455412	      3.19674968	     -5.65678620	      2.76576281	      0.04178228	      0.00162412	     -0.02673615	      0.01065103	     -0.00065507	      0.01660461	     -0.04178228	     -0.00162412	      0.02673615	     -0.00010319	      0.00127796	     -0.00008300	   -894.18223740	   -364.24697864	    303.86804172	     -8.21219299	     21.84265184	      2.21236024	    894.18223740	    364.24697864	   -303.86804172	    128.93538436	    -15.78469330	    360.29738524	   -252.15874255	   -113.24004766	    -67.23513686	      3.63866180	     -8.59967437	      0.83975585	    252.15874255	    113.24004766	     67.23513686	    -29.87819228	      6.16300685	    101.67294330	      0.97490187	      0.00000000	    961.38487381	    605.84874581	     26.30780662	     12.85353149	      0.00000000	      0.00000000	      0.00000000	      0.00000000	      0.00000000	      0.00000000	      0.00000001	      0.00000000
      0.20997484	      9.70222240	      7.14144309	      7.66637720	      3.31874378	      3.89526411	      4.10200489	      0.00000000	    164.86928161	    177.53575446	    339.45789971	    122.75959705	      7.09463037	      5.15812655	      3.67353963	      3.10522081	      5.16609015	      3.16522776	      2.79835100	     93.02194774	      4.60893855	      7.00868998	      5.25348857	     25.33558580	     16.00964899	      4.54870299	      3.29218591	      5.56569226	    107.98701343	     40.56501805	     30.10961010	     56.05840319	      0.00000000	      0.00000000	      0.00000000	      0.00000000	      0.00000000	      0.00000000	     34.15150190	      2.18895269	      4.46965378	     23.87919588	     49.64392375	     11.53459028	      9.70222240	      7.14144309	      7.66637720	      3.31874378	      3.89526411	      4.10200489	     10.59340962	      5.23711609	     10.24751656	      9.05216232	      1.89492101	      7.09463037	      5.15812655	      3.67353963	      3.10522081	      5.16609015	      4.82690111	      2.79835100	      1.95103890	      4.60893855	      7.00868998	      5.25348857	     25.33558580	     16.00964899	      4.54870299	      3.29218591	      5.56569226	     14.18230301	      0.00000000	      0.00000000	      0.00000000	     19.31086546	      9.02055044	     42.92280668	     47.24995671	      4.16552223	      3.62742415	     11.11318758	      5.87978316	     15.81324330	      2.47646441	      7.86453338	      2.51910129	     31.22773017	     31.22773017	     11.45993445	     11.45993445	     29.01725411	     29.01725411	    215.16168717	    125.54014023	      6.45160841	     -5.41435298	      4.95318205	     85.51096556	   -215.16168717	   -125.54014023	     -6.45160841	      3.17667600	     -5.65423247	      2.75730565	      0.04042532	      0.00140841	     -0.02655425	      0.01057598	     -0.00063942	      0.01606645	     -0.04042532	     -0.00140841	      0.02655425	     -0.00009917	      0.00126092	     -0.00008394	   -894.13450470	   -362.09639264	    304.57658588	     -8.16677149	     21.85757502	      2.20489559	    894.13450470	    362.09639264	   -304.57658588	    129.18126869	    -15.78136760	    360.27671141	   -253.26768705	   -113.11791698	    -67.33139569	      3.63242922	     -8.63322310	      0.84059631	    253.26768705	    113.11791698	     67.33139569	    -29.91230836	      6.18752667	    102.12023232	      1.02895719	      0.00000000	    963.01408748	    606.86787965	     26.21760969	     12.78192647	      0.00000000	      0.00000000	      0.00000000	      0.00000000	      0.00000000	      0.00000000	      0.00000001	      0.00000000
      0.21003427	      9.70054429	      7.14029649	      7.66513108	      3.31823337	      3.89470809	      4.10129549	      0.00000000	    164.88858651	    177.63517019	    339.57799009	    122.75574918	      7.09347785	      5.15734063	      3.67295404	      3.10471320	      5.16516968	      3.16476895	      2.79791766	     93.02259403	      4.60819704	      7.00755940	      5.25262669	     25.33348754	     16.00726254	      4.54798801	      3.29184191	      5.56476986	    109.08886943	     40.57905136	     30.72962700	     56.07597784	      0.00000000	      0.00000000	      0.00000000	      0.00000000	      0.00000000	      0.00000000	     34.14859290	      2.18365429	      4.46580990	     23.86618649	     49.61422302	     11.52715427	      9.70054429	      7.14029649	      7.66513108	      3.31823337	      3.89470809	      4.10129549	     10.59432435	      5.23621577	     10.24556471	      9.05073814	      1.89463094	      7.09347785	      5.15734063	      3.67295404	      3.10471320	      5.16516968	      4.82633144	      2.79791766	      1.95073496	      4.60819704	      7.00755940	      5.25262669	     25.33348754	     16.00726254	      4.54798801	      3.29184191	      5.56476986	     14.17959016	      0.00000000	      0.00000000	      0.00000000	     19.30802657	      9.01914393	     42.91441127	     47.24628143	      4.16375217	      3.62584890	     11.11112858	      5.87861234	     15.81083098	      2.47609616	      7.86369592	      2.51885296	     31.22291651	     31.22291651	     11.45801736	     11.45801736	     29.01552580	     29.01552580	    214.95539115	    125.57764632	      6.82150545	     -5.56459556	      4.95186108	     85.42500118	   -214.95539115	   -125.57764632	     -6.82150545	      3.18132075	     -5.66296654	      2.76619422	      0.04017306	      0.00141269	     -0.02637616	      0.01050511	     -0.00063528	      0.01596597	     -0.04017306	     -0.00141269	      0.02637616	     -0.00009822	      0.00125263	     -0.00008235	   -894.13781887	   -361.64308622	    304.47054020	     -8.15182645	     21.85054022	      2.20669199	    894.13781887	    361.64308622	   -304.47054020	    129.12782104	    -15.77749023	    360.27661562	   -253.74575703	   -113.01805002	    -67.47032993	      3.63094254	     -8.65093252	      0.83584574	    253.74575703	    113.01805002	     67.47032993	    -29.96640871	      6.19933706	    102.31449226	      0.99801863	      0.00000000	    963.45438446	    607.19314371	     26.16754791	     12.75107812	      0.00000000	      0.00000000	      0.00000000	      0.00000000	      0.00000000	      0.00000000	      0.00000001	      0.00000000
      0.21005293	      9.70001777	      7.13993675	      7.66474011	      3.31807323	      3.89453363	      4.10107291	      0.00000000	    164.89461190	    177.66625917	    339.61484914	    122.75445284	      7.09311624	      5.15709404	      3.67277031	      3.10455394	      5.16488088	      3.16462516	      2.79778170	     93.02273894	      4.60796438	      7.00720468	      5.25235627	     25.33282921	     16.00651378	      4.54776368	      3.29173398	      5.56448035	    109.43116827	     40.58339596	   5401.19421674	     56.08143375	      0.00000000	      0.00000000	      0.00000000	      0.00000000	      0.00000000	      0.00000000	     34.14770411	      2.18198300	      4.46458852	     23.86209714	     49.60492989	     11.52482698	      9.70001777	      7.13993675	      7.66474011	      3.31807323	      3.89453363	      4.10107291	     10.59460937	      5.23593329	     10.24495228	      9.05029129	      1.89453993	      7.09311624	      5.15709404	      3.67277031	      3.10455394	      5.16488088	      4.82615270	      2.79778170	      1.95063960	      4.60796438	      7.00720468	      5.25235627	     25.33282921	     16.00651378	      4.54776368	      3.29173398	      5.56448035	     14.17873899	      0.00000000	      0.00000000	      0.00000000	     19.30713543	      9.01870244	     42.91177690	     47.24512826	      4.16319674	      3.62535468	     11.11048256	      5.87824499	     15.81007406	      2.47598063	      7.86343297	      2.51877497	     31.22140621	     31.22140621	     11.45741587	     11.45741587	     29.01498354	     29.01498354	    204.36086320	    125.88737258	      9.32133974	     -6.58359322	      4.73250313	     81.13050268	   -204.36086320	   -125.88737258	     -9.32133974	      3.21513189	     -5.48567147	      2.89133013	      0.03763030	      0.00158752	     -0.02479552	      0.00987819	     -0.00059581	      0.01495310	     -0.03763030	     -0.00158752	      0.02479552	     -0.00009423	      0.00117652	     -0.00006753	   -890.48523484	   -366.11071158	    301.66099097	     -8.16260121	     21.70013676	      2.43217401	    890.48523484	    366.11071158	   -301.66099097	    128.04275328	    -15.69446670	    358.73565598	   -252.65428772	   -114.52814692	    -68.40238594	      3.67950725	     -8.66319990	      0.91447679	    252.65428772	    114.52814692	     68.40238594	    -30.37907854	      6.18868386	    101.84747814	      0.28447364	      0.00000000	    965.54666856	    612.68557969	     28.08058752	     15.14651465	      0.00000000	      0.00000000	      0.00000000	      0.00000000	      0.00000000	      0.00000000	      0.00000001	      0.00000000
